<svg width="50" height="50" viewBox="0 0 50 50" fill="none" xmlns="http://www.w3.org/2000/svg">
<path fill-rule="evenodd" clip-rule="evenodd" d="M45.2981 18.1013L47.0387 19.8413C48.4167 21.1946 49.1661 23.0313 49.1661 24.9646C49.1903 26.898 48.4409 28.7371 47.0871 30.1121C47.0709 30.1299 47.0548 30.1454 47.0387 30.161C47.0307 30.1688 47.0226 30.1766 47.0145 30.1846L45.2981 31.9005C44.6212 32.5771 44.2344 33.4955 44.2344 34.4646V36.9513C44.2344 40.963 40.9707 44.2279 36.9575 44.2279H34.4675C33.5005 44.2279 32.5818 44.6121 31.9049 45.2888L30.1643 47.0288C28.7379 48.4571 26.8764 49.1555 25.0149 49.1555C23.1534 49.1555 21.2919 48.4571 19.8655 47.0554L18.1007 45.2888C17.4238 44.6121 16.5051 44.2279 15.5381 44.2279H13.048C9.03493 44.2279 5.77124 40.963 5.77124 36.9513V34.4646C5.77124 33.4955 5.38444 32.5771 4.70753 31.8763L2.96689 30.1605C0.138369 27.3354 0.114194 22.7171 2.94272 19.8679L4.70753 18.1013C5.38444 17.4246 5.77124 16.5063 5.77124 15.5155V13.0505C5.77124 9.03881 9.03493 5.77873 13.048 5.77873H15.5381C16.5051 5.77873 17.4238 5.38964 18.1007 4.71298L19.8413 2.97298C22.6699 0.123727 27.2874 0.123727 30.1401 2.95123L31.9049 4.71298C32.5818 5.38964 33.5005 5.77873 34.4675 5.77873H36.9575C40.9707 5.77873 44.2344 9.03881 44.2344 13.0505V15.5421C44.2344 16.5063 44.6212 17.4246 45.2981 18.1013ZM18.7776 33.3264C19.3578 33.3264 19.8897 33.1089 20.2765 32.698L32.7027 20.2788C33.5246 19.4571 33.5246 18.1014 32.7027 17.2797C31.8807 16.4604 30.551 16.4604 29.7291 17.2797L17.3029 29.7014C16.4809 30.523 16.4809 31.8764 17.3029 32.698C17.6897 33.1089 18.2216 33.3264 18.7776 33.3264ZM29.1008 31.1996C29.1008 32.3838 30.0437 33.3263 31.2283 33.3263C32.3887 33.3263 33.3315 32.3838 33.3315 31.1996C33.3315 30.042 32.3887 29.0971 31.2283 29.0971C30.0437 29.0971 29.1008 30.042 29.1008 31.1996ZM18.8019 16.6754C19.9624 16.6754 20.9052 17.6179 20.9052 18.7779C20.9052 19.9645 19.9624 20.9046 18.8019 20.9046C17.6415 20.9046 16.6745 19.9645 16.6745 18.7779C16.6745 17.6179 17.6415 16.6754 18.8019 16.6754Z" fill="#FDC886"/>
</svg>
