<svg width="41" height="41" viewBox="0 0 41 41" fill="none" xmlns="http://www.w3.org/2000/svg">
<path d="M13.9457 15.6294C14.2489 14.7652 15.8949 14.7652 16.1982 15.6294C16.923 17.6946 18.0047 20.0867 19.4636 21.5457C20.9225 23.0046 23.3147 24.0863 25.3799 24.8111C26.244 25.1144 26.244 26.7603 25.3799 27.0636C23.3147 27.7884 20.9225 28.8701 19.4636 30.329C18.0047 31.7879 16.923 34.1801 16.1982 36.2453C15.8949 37.1094 14.2489 37.1094 13.9457 36.2453C13.2209 34.1801 12.1392 31.7879 10.6803 30.329C9.22133 28.8701 6.82917 27.7884 4.76399 27.0636C3.89982 26.7603 3.89982 25.1144 4.76399 24.8111C6.82917 24.0863 9.22133 23.0046 10.6803 21.5457C12.1392 20.0867 13.2209 17.6946 13.9457 15.6294Z" fill="#FDC886"/>
<path d="M32.1277 24.5858C32.2715 24.151 33.0765 24.151 33.2203 24.5858C33.6403 25.8558 34.307 27.4331 35.2358 28.362C36.1646 29.2908 37.7419 29.9575 39.012 30.3775C39.4467 30.5213 39.4467 31.3262 39.012 31.47C37.7419 31.89 36.1646 32.5567 35.2358 33.4856C34.307 34.4144 33.6403 35.9917 33.2203 37.2617C33.0765 37.6965 32.2715 37.6965 32.1277 37.2617C31.7077 35.9917 31.041 34.4144 30.1122 33.4856C29.1834 32.5567 27.6061 31.89 26.3361 31.47C25.9013 31.3262 25.9013 30.5213 26.3361 30.3775C27.6061 29.9575 29.1834 29.2908 30.1122 28.362C31.041 27.4331 31.7077 25.8558 32.1277 24.5858Z" fill="#FDC886"/>
<path d="M8.57864 2.7188C8.72242 2.28404 9.52739 2.28404 9.67117 2.7188C10.0912 3.98884 10.7579 5.56612 11.6867 6.49495C12.6155 7.42379 14.1928 8.09048 15.4629 8.51049C15.8976 8.65427 15.8976 9.45924 15.4629 9.60302C14.1928 10.023 12.6155 10.6897 11.6867 11.6186C10.7579 12.5474 10.0912 14.1247 9.67117 15.3947C9.52739 15.8295 8.72242 15.8295 8.57864 15.3947C8.15863 14.1247 7.49194 12.5474 6.56311 11.6186C5.63427 10.6897 4.05699 10.023 2.78695 9.60302C2.35219 9.45924 2.35219 8.65427 2.78695 8.51049C4.05699 8.09048 5.63427 7.42379 6.5631 6.49495C7.49194 5.56612 8.15863 3.98884 8.57864 2.7188Z" fill="#FDC886"/>
<path d="M27.1159 4.66996C27.4601 3.82128 29.1893 3.82128 29.5335 4.66996C30.0539 5.95284 30.7463 7.26967 31.6184 8.14183C32.4906 9.01398 33.8074 9.70638 35.0903 10.2267C35.939 10.571 35.939 12.3002 35.0903 12.6444C33.8074 13.1648 32.4906 13.8572 31.6184 14.7293C30.7463 15.6015 30.0539 16.9183 29.5335 18.2012C29.1893 19.0499 27.4601 19.0499 27.1159 18.2012C26.5955 16.9183 25.9031 15.6015 25.0309 14.7293C24.1588 13.8572 22.8419 13.1648 21.5591 12.6444C20.7104 12.3002 20.7104 10.571 21.5591 10.2267C22.8419 9.70638 24.1588 9.01398 25.0309 8.14183C25.9031 7.26967 26.5955 5.95284 27.1159 4.66996Z" fill="#FDC886"/>
</svg>
