<svg width="37" height="41" viewBox="0 0 37 41" fill="none" xmlns="http://www.w3.org/2000/svg">
<path d="M10.355 1.82222C10.355 0.815835 11.1709 0 12.1772 0H19.4661C20.4725 0 21.2884 0.815837 21.2884 1.82222V2.73334C21.2884 5.2493 19.2488 7.28889 16.7328 7.28889H14.9106C12.3946 7.28889 10.355 5.2493 10.355 2.73333V1.82222Z" fill="#FDC886"/>
<path d="M9.29938 11.448C9.95391 10.5356 11.0115 10.0222 12.1344 10.0222H19.509C20.6319 10.0222 21.6895 10.5356 22.344 11.448C24.5301 14.4955 29.43 21.8497 30.3995 27.7889C30.7804 30.1224 31.1832 31.9719 30.661 33.8605C29.7371 37.2017 25.7376 38.2667 22.271 38.2667H9.37234C5.90578 38.2667 1.90624 37.2017 0.982421 33.8605C0.460228 31.9719 0.862993 30.1224 1.24391 27.7889C2.21341 21.8497 7.11328 14.4955 9.29938 11.448Z" fill="#FDC886"/>
<path d="M16.4413 32.104C16.1255 32.104 15.8643 31.9946 15.6578 31.776C15.4513 31.5695 15.348 31.3143 15.348 31.0106V29.9355C14.6434 29.8869 14.0178 29.7776 13.4711 29.6075C12.9366 29.4253 12.481 29.237 12.1044 29.0426C11.7643 28.8726 11.5517 28.6357 11.4667 28.332C11.3816 28.0161 11.3938 27.7185 11.5031 27.4391C11.6246 27.1475 11.819 26.941 12.0862 26.8195C12.3656 26.6859 12.6936 26.7102 13.0702 26.8924C13.3618 27.0503 13.7687 27.2143 14.2911 27.3844C14.8135 27.5423 15.4513 27.6213 16.2044 27.6213C17.0427 27.6213 17.6379 27.4877 17.9902 27.2204C18.3425 26.9532 18.5187 26.6191 18.5187 26.2182C18.5187 25.8902 18.3972 25.6169 18.1542 25.3982C17.9113 25.1795 17.4739 25.0034 16.8422 24.8698L14.8378 24.4324C12.6268 23.9465 11.5213 22.7681 11.5213 20.8973C11.5213 19.8769 11.8676 19.0143 12.56 18.3098C13.2524 17.6052 14.1818 17.1618 15.348 16.9795V15.8315C15.348 15.5278 15.4513 15.2727 15.6578 15.0662C15.8643 14.8475 16.1255 14.7382 16.4413 14.7382C16.745 14.7382 17.0002 14.8475 17.2067 15.0662C17.4132 15.2727 17.5164 15.5278 17.5164 15.8315V16.9249C17.9659 16.9856 18.4276 17.0949 18.9013 17.2529C19.3873 17.4108 19.8124 17.6173 20.1769 17.8724C20.4684 18.0546 20.6446 18.2915 20.7053 18.5831C20.7782 18.8625 20.7539 19.1298 20.6324 19.3849C20.511 19.64 20.3105 19.8222 20.0311 19.9315C19.7639 20.0287 19.4359 19.9801 19.0471 19.7858C18.7191 19.6278 18.3607 19.4942 17.972 19.3849C17.5833 19.2755 17.1034 19.2209 16.5324 19.2209C15.8279 19.2209 15.2751 19.3666 14.8742 19.6582C14.4733 19.9498 14.2729 20.3263 14.2729 20.788C14.2729 21.116 14.3883 21.3893 14.6191 21.608C14.8621 21.8145 15.2812 21.9846 15.8764 22.1182L17.8991 22.5555C19.0532 22.8106 19.9036 23.2298 20.4502 23.8129C21.009 24.3838 21.2884 25.1188 21.2884 26.0178C21.2884 27.0503 20.9362 27.9007 20.2316 28.5689C19.5391 29.237 18.6341 29.6683 17.5164 29.8626V31.0106C17.5164 31.3143 17.4132 31.5695 17.2067 31.776C17.0002 31.9946 16.745 32.104 16.4413 32.104Z" fill="#FFF4E7"/>
<circle cx="28.9778" cy="33.7111" r="6.37778" fill="#FDC886" stroke="#FFF4E7" stroke-width="1.82222"/>
<rect x="27.533" y="30.9778" width="5.46667" height="1.82222" rx="0.911111" transform="rotate(45 27.533 30.9778)" fill="#FFF4E7"/>
<rect x="26.2445" y="34.8433" width="5.46667" height="1.82222" rx="0.911111" transform="rotate(-45 26.2445 34.8433)" fill="#FFF4E7"/>
</svg>
