<svg width="46" height="49" viewBox="0 0 46 49" fill="none" xmlns="http://www.w3.org/2000/svg">
<path d="M5.44274 43.5042C3.9523 42.0138 3.9523 39.5973 5.44274 38.1069L25.5328 18.0168L30.9302 23.4141L10.8401 43.5042C9.34964 44.9946 6.93317 44.9946 5.44274 43.5042Z" fill="#FDC886"/>
<path d="M24.9332 17.4172C24.2708 16.7548 24.2708 15.6808 24.9332 15.0184L29.7308 10.2207L38.7264 19.2163L33.9288 24.0139C33.2663 24.6764 32.1924 24.6764 31.5299 24.0139L24.9332 17.4172Z" fill="#FDC886"/>
<rect x="27.3319" y="12.6196" width="11.0254" height="2.54433" transform="rotate(-45 27.3319 12.6196)" fill="#FDC886"/>
<rect x="30.9302" y="16.2178" width="11.0254" height="2.54433" transform="rotate(-45 30.9302 16.2178)" fill="#FDC886"/>
<rect x="34.5284" y="19.816" width="11.0254" height="2.54433" transform="rotate(-45 34.5284 19.816)" fill="#FDC886"/>
<path d="M7.75367 3.47597L6.56664 2.26985L5.73782 3.74526C4.2249 6.43847 2.66965 13.1339 8.13062 18.8741L20.9446 32.3434L21.8214 33.2651L22.7431 32.3882L23.5348 31.635L35.71 45.1264C37.4088 47.0088 40.3028 47.1821 42.214 45.5158C44.2318 43.7567 44.3501 40.661 42.4723 38.7531L7.75367 3.47597Z" fill="#FDC886" stroke="#FFF4E7" stroke-width="2.54433"/>
</svg>
