<svg width="18" height="17" viewBox="0 0 18 17" fill="none" xmlns="http://www.w3.org/2000/svg">
<path d="M7.57341 1.89058C8.02244 0.508612 9.97756 0.50861 10.4266 1.89058L11.3574 4.75532C11.5582 5.37336 12.1341 5.7918 12.784 5.7918H15.7962C17.2492 5.7918 17.8534 7.65122 16.6778 8.50532L14.2409 10.2758C13.7152 10.6578 13.4952 11.3348 13.696 11.9529L14.6268 14.8176C15.0759 16.1996 13.4941 17.3488 12.3186 16.4947L9.88168 14.7242C9.35595 14.3422 8.64405 14.3422 8.11832 14.7242L5.68143 16.4947C4.50586 17.3488 2.92413 16.1996 3.37316 14.8176L4.30397 11.9529C4.50479 11.3348 4.2848 10.6578 3.75907 10.2758L1.32217 8.50532C0.1466 7.65122 0.750763 5.7918 2.20385 5.7918H5.21602C5.86586 5.7918 6.44179 5.37336 6.6426 4.75532L7.57341 1.89058Z" fill="#FFB800"/>
</svg>
